<?xml version="1.0" encoding="utf-8"?>
<!-- Generator: Adobe Illustrator 23.0.0, SVG Export Plug-In . SVG Version: 6.00 Build 0)  -->
<svg version="1.1" xmlns="http://www.w3.org/2000/svg" xmlns:xlink="http://www.w3.org/1999/xlink" x="0px" y="0px"
	 viewBox="0 0 512 512" style="enable-background:new 0 0 512 512;" xml:space="preserve">
<style type="text/css">
	.st0{filter:url(#Adobe_OpacityMaskFilter);}
	.st1{stroke:#FFFFFF;stroke-width:4;stroke-miterlimit:10;}
	.st2{fill:none;stroke:#FFFFFF;stroke-width:4;stroke-miterlimit:10;}
	.st3{fill:#FFFFFF;}
	.st4{mask:url(#SVGID_1_);fill:#208CCB;stroke:#208CCB;stroke-miterlimit:10;}
	.st5{filter:url(#Adobe_OpacityMaskFilter_1_);}
	.st6{mask:url(#SVGID_2_);}
	.st7{fill:#208CCB;}
	.st8{filter:url(#Adobe_OpacityMaskFilter_2_);}
	.st9{mask:url(#SVGID_3_);}
</style>
<g id="图层_2">
	<defs>
		<filter id="Adobe_OpacityMaskFilter" filterUnits="userSpaceOnUse" x="56.814" y="25.423" width="399.372" height="461.155">
			
				<feColorMatrix  type="matrix" values="-1 0 0 0 1  0 -1 0 0 1  0 0 -1 0 1  0 0 0 1 0" color-interpolation-filters="sRGB" result="source"/>
			<feFlood  style="flood-color:white;flood-opacity:1" result="back"/>
			<feBlend  in="source" in2="back" mode="normal"/>
		</filter>
	</defs>
	<mask maskUnits="userSpaceOnUse" x="56.814" y="25.423" width="399.372" height="461.155" id="SVGID_1_">
		<g class="st0">
			<g>
				<line class="st1" x1="57.314" y1="141" x2="256" y2="256"/>
				<line class="st1" x1="455.686" y1="141" x2="256" y2="256"/>
				<line class="st2" x1="256" y1="256" x2="256.5" y2="486"/>
			</g>
			<g>
				<path class="st3" d="M173.053,231.044c3.2,0,16-2,16,4s-14.399,7.2-17.6,8c-36.399,7.2-60.799,23.2-67.199,23.2
					c-7.6,0-8.8-16.4-8.8-21.2c0-18.8,6.4-38.399,20.399-51.199c21.6-20,141.599-81.199,170.397-81.999
					c14.4-0.4,26.8,25.6,26.8,31.2c0,8-10.8,23.6-15.199,30.399c-71.6,113.999-85.2,149.598-86,161.198
					c-0.8,9.6,1.6,25.999,10.4,23.199c10.8-3.6,29.599-13.6,113.199-145.998c-4.4-25.199,32.799-73.199,45.199-68.799
					c17.6,6,9.6,55.599-92.399,189.197c-12.8,16.8-50,69.599-71.599,69.599c-16,0-45.999-25.199-45.199-55.199
					c0.4-15.999,6.8-50.398,82.799-175.997l-0.8-0.8c-36,17.2-72.799,34.799-103.599,61.599l0.8,0.8L173.053,231.044z"/>
			</g>
			<g>
				<path class="st3" d="M356.808,324.705c20.42,5.997,29.473,17.352,28.947,27.383c-2.135,40.739-73.926,43.546-103.405,42.001
					c-7.984-0.418-32.96-1.728-32.338-13.602c0.225-4.299,7.959-14.773,11.396-17.673c2.564-1.919,14.847-5.175,17.917-5.015
					c1.023,0.054,1.627,0.291,1.563,1.52c-0.107,2.047-2.208,2.964-3.684,3.707c-1.271,0.755-2.35,1.725-3.642,2.889l-0.021,0.409
					c72.945,6.492,94.113-13.543,94.285-16.818c0.547-10.44-55.73-21.602-65.471-23.755c-10.15-2.174-20.625-6.008-19.98-18.29
					c0.354-6.756,4.411-21.529,7.978-26.886c6.894-10.107,44.968-27.614,89.801-25.265c8.599,0.451,17.144,1.925,25.646,4.219
					c4.654,1.271,5.183,2.94,4.969,7.035c-0.794,15.149-6.095,18.361-18.421,22.437c-8.974,2.814-10.666,3.752-18.95,9.065
					c-1.476,0.744-3.587,1.865-5.226,1.779c-2.047-0.107-3.222-1.195-3.114-3.243c0.021-0.409,4.243-6.552,15.696-13.547
					l-0.389-0.431c-52.914-0.926-76.636,16.922-77.088,21.62C303.125,307.111,300.39,308.405,356.808,324.705z"/>
			</g>
		</g>
	</mask>
	<polygon class="st4" points="57.314,141 256.5,26 455.686,141 455.686,371 256.5,486 57.314,371 	"/>
</g>
<g id="成品">
	<defs>
		<filter id="Adobe_OpacityMaskFilter_1_" filterUnits="userSpaceOnUse" x="95.454" y="111.842" width="292.532" height="290">
			
				<feColorMatrix  type="matrix" values="-1 0 0 0 1  0 -1 0 0 1  0 0 -1 0 1  0 0 0 1 0" color-interpolation-filters="sRGB" result="source"/>
		</filter>
	</defs>
	<mask maskUnits="userSpaceOnUse" x="95.454" y="111.842" width="292.532" height="290" id="SVGID_2_">
		<g class="st5">
			<g>
				<path d="M356.808,324.705c20.42,5.997,29.473,17.352,28.947,27.383c-2.135,40.739-73.926,43.546-103.405,42.001
					c-7.984-0.418-32.96-1.728-32.338-13.602c0.225-4.299,7.959-14.773,11.396-17.673c2.564-1.919,14.847-5.175,17.917-5.015
					c1.023,0.054,1.627,0.291,1.563,1.52c-0.107,2.047-2.208,2.964-3.684,3.707c-1.271,0.755-2.35,1.725-3.642,2.889l-0.021,0.409
					c72.945,6.492,94.113-13.543,94.285-16.818c0.547-10.44-55.73-21.602-65.471-23.755c-10.15-2.174-20.625-6.008-19.98-18.29
					c0.354-6.756,4.411-21.529,7.978-26.886c6.894-10.107,44.968-27.614,89.801-25.265c8.599,0.451,17.144,1.925,25.646,4.219
					c4.654,1.271,5.183,2.94,4.969,7.035c-0.794,15.149-6.095,18.361-18.421,22.437c-8.974,2.814-10.666,3.752-18.95,9.065
					c-1.476,0.744-3.587,1.865-5.226,1.779c-2.047-0.107-3.222-1.195-3.114-3.243c0.021-0.409,4.243-6.552,15.696-13.547
					l-0.389-0.431c-52.914-0.926-76.636,16.922-77.088,21.62C303.125,307.111,300.39,308.405,356.808,324.705z"/>
			</g>
		</g>
	</mask>
	<g class="st6">
		<path class="st7" d="M173.053,231.044c3.2,0,16-2,16,4s-14.399,7.2-17.6,8c-36.399,7.2-60.799,23.2-67.199,23.2
			c-7.6,0-8.8-16.4-8.8-21.2c0-18.8,6.4-38.399,20.399-51.199c21.6-20,141.599-81.199,170.397-81.999c14.4-0.4,26.8,25.6,26.8,31.2
			c0,8-10.8,23.6-15.199,30.399c-71.6,113.999-85.2,149.598-86,161.198c-0.8,9.6,1.6,25.999,10.4,23.199
			c10.8-3.6,29.599-13.6,113.199-145.998c-4.4-25.199,32.799-73.199,45.199-68.799c17.6,6,9.6,55.599-92.399,189.197
			c-12.8,16.8-50,69.599-71.599,69.599c-16,0-45.999-25.199-45.199-55.199c0.4-15.999,6.8-50.398,82.799-175.997l-0.8-0.8
			c-36,17.2-72.799,34.799-103.599,61.599l0.8,0.8L173.053,231.044z"/>
	</g>
</g>
<g id="图层_3">
	<defs>
		<filter id="Adobe_OpacityMaskFilter_2_" filterUnits="userSpaceOnUse" x="57.314" y="26" width="398.372" height="460">
			
				<feColorMatrix  type="matrix" values="-1 0 0 0 1  0 -1 0 0 1  0 0 -1 0 1  0 0 0 1 0" color-interpolation-filters="sRGB" result="source"/>
		</filter>
	</defs>
	<mask maskUnits="userSpaceOnUse" x="57.314" y="26" width="398.372" height="460" id="SVGID_3_">
		<g class="st8">
			<rect x="25.667" y="14" width="480" height="97.842"/>
		</g>
	</mask>
	<g class="st9">
		<polygon class="st7" points="57.314,141 256.5,26 455.686,141 455.686,371 256.5,486 57.314,371 		"/>
	</g>
	<g>
	</g>
	<g>
	</g>
	<g>
	</g>
	<g>
	</g>
	<g>
	</g>
	<g>
	</g>
</g>
</svg>
